<svg width="24" height="24" viewBox="0 0 24 24" fill="none" xmlns="http://www.w3.org/2000/svg">
<path d="M21.9 17.4902C21.4 16.4118 21 15.3333 20.5 14.2549C20.5 14.2549 20.4 14.2549 20.4 14.3529C20.1 14.549 19.9 14.6471 19.6 14.8431C19.5 14.9412 19.4 14.9412 19.4 15.1373C19.4 16.2157 19.4 17.2941 19.4 18.3725C19.4 18.4706 19.4 18.5686 19.2 18.6667C18.6 19.0588 17.9 19.451 17.3 19.8431C17.2 19.9412 17.1 19.9412 17.1 19.7451V19.6471C17.1 14.6471 17.1 9.64706 17.1 4.64706C17.1 4.54902 17.1 4.54902 17.1 4.45098C17.2 4.54902 17.3 4.54902 17.4 4.64706C19.1 5.72549 20.7 6.80392 22.4 7.88235C22.8 8.17647 23.3 8.47059 23.8 8.76471C24 8.56863 24 8.66667 24 8.76471C24 9.7451 24 10.7255 24 11.6078C24 11.7059 24 11.8039 23.9 11.902C23.5 12.1961 23.1 12.4902 22.7 12.7843C22.6 12.8824 22.5 12.9804 22.6 13.1765C23 14.1569 23.4 15.1373 23.8 16.2157C23.9 16.4118 23.8 16.5098 23.7 16.6078C23.2 16.902 22.6 17.1961 22.1 17.4902C22 17.3922 22 17.4902 21.9 17.4902ZM19.4 12.4902C19.5 12.4902 19.5 12.4902 19.4 12.4902C20.2 12 21 11.5098 21.7 11.0196C21.7 11.0196 21.8 10.9216 21.8 10.8235C21.8 10.5294 21.8 10.1373 21.8 9.84314C21.8 9.7451 21.8 9.64706 21.7 9.64706C21.2 9.2549 20.6 8.96078 20.1 8.66667C19.9 8.56863 19.7 8.37255 19.4 8.27451C19.4 9.64706 19.4 11.1176 19.4 12.4902ZM6.6 4.45098C6.4 4.54902 6.2 4.64706 6 4.7451C4 6.01961 2 7.29412 0.1 8.56863C0 8.66667 0 8.76471 0 8.86275C0 9.54902 0 10.3333 0 11.0196C0 11.1176 0 11.1176 0 11.2157C0.8 10.6275 1.7 10.1373 2.5 9.64706C2.5 9.7451 2.5 9.7451 2.5 9.7451C2.5 11.902 2.5 14.1569 2.5 16.3137C2.5 16.4118 2.5 16.5098 2.6 16.6078C3.2 17 3.9 17.4902 4.5 17.8824C4.5 17.8824 4.6 17.8824 4.7 17.9804C4.7 17.8824 4.7 17.7843 4.7 17.7843C4.7 14.6471 4.7 11.5098 4.7 8.47059C4.7 8.37255 4.8 8.27451 4.8 8.27451C5.4 7.68627 6 7.39216 6.6 7C6.7 6.90196 6.8 6.80392 6.8 6.70588C6.8 6.21569 6.8 5.62745 6.8 5.13725C6.8 4.94118 6.8 4.64706 6.8 4.35294C6.7 4.35294 6.6 4.45098 6.6 4.45098ZM15.9 13.9608C15.9 10.5294 15.9 7.09804 15.9 3.56863C15.9 3.37255 15.9 3.37255 15.7 3.27451C15.2 2.98039 14.7 2.58824 14.2 2.29412C14.1 2.19608 14 2.09804 13.8 2C13.8 2.09804 13.8 2.09804 13.8 2.19608C13.8 7.39216 13.8 12.5882 13.8 17.7843C13.8 17.8824 13.8 17.8824 13.7 17.9804C13.2 18.3725 12.6 18.7647 12.1 19.1569H12V22C12 22 12.1 22 12.1 21.902C13.3 21.1176 14.5 20.4314 15.7 19.6471C15.8 19.549 15.9 19.451 15.9 19.3529C15.9 17.5882 15.9 15.8235 15.9 13.9608ZM11.9 19.0588C11.4 18.7647 10.9 18.3725 10.5 18.0784C10.3 17.9804 10.3 17.8824 10.3 17.5882C10.3 12.4902 10.3 7.29412 10.3 2.19608C10.3 2.09804 10.3 2.09804 10.3 2H10.2C9.5 2.39216 8.9 2.88235 8.2 3.27451C8.1 3.27451 8.1 3.37255 8.1 3.47059C8.1 8.76471 8.1 14.0588 8.1 19.3529C8.1 19.451 8.1 19.549 8.2 19.549C9.4 20.3333 10.7 21.1176 11.9 21.8039C12 21.8039 12 21.902 12.1 21.902V19.0588C12 19.1569 11.9 19.0588 11.9 19.0588Z" fill="#6e23f8"/>
</svg>
